# Glass box test model
# Opaque wooden frame (12 beams) + 6 double-sided translucent glass panes.
# Each part is a separate object/mesh; glass panes use d<1 for alpha blending.
# Generated for testing mixed opaque + semi-transparent rendering.
mtllib glass_box.mtl

v -1.0000 1.0000 1.0000
v -1.0000 0.8000 1.0000
v 1.0000 0.8000 1.0000
v 1.0000 1.0000 1.0000
v -1.0000 0.8000 0.8000
v -1.0000 1.0000 0.8000
v 1.0000 1.0000 0.8000
v 1.0000 0.8000 0.8000
v -1.0000 1.0000 -0.8000
v -1.0000 0.8000 -0.8000
v 1.0000 0.8000 -0.8000
v 1.0000 1.0000 -0.8000
v -1.0000 0.8000 -1.0000
v -1.0000 1.0000 -1.0000
v 1.0000 1.0000 -1.0000
v 1.0000 0.8000 -1.0000
v -1.0000 -0.8000 1.0000
v -1.0000 -1.0000 1.0000
v 1.0000 -1.0000 1.0000
v 1.0000 -0.8000 1.0000
v -1.0000 -1.0000 0.8000
v -1.0000 -0.8000 0.8000
v 1.0000 -0.8000 0.8000
v 1.0000 -1.0000 0.8000
v -1.0000 -0.8000 -0.8000
v -1.0000 -1.0000 -0.8000
v 1.0000 -1.0000 -0.8000
v 1.0000 -0.8000 -0.8000
v -1.0000 -1.0000 -1.0000
v -1.0000 -0.8000 -1.0000
v 1.0000 -0.8000 -1.0000
v 1.0000 -1.0000 -1.0000
v 0.8000 0.8000 1.0000
v 0.8000 -0.8000 1.0000
v 0.8000 -0.8000 0.8000
v 0.8000 0.8000 0.8000
v 0.8000 0.8000 -0.8000
v 0.8000 -0.8000 -0.8000
v 0.8000 -0.8000 -1.0000
v 0.8000 0.8000 -1.0000
v -0.8000 -0.8000 1.0000
v -0.8000 0.8000 1.0000
v -0.8000 0.8000 0.8000
v -0.8000 -0.8000 0.8000
v -0.8000 -0.8000 -0.8000
v -0.8000 0.8000 -0.8000
v -0.8000 0.8000 -1.0000
v -0.8000 -0.8000 -1.0000
v 0.8000 1.0000 0.8000
v 0.8000 1.0000 -0.8000
v 0.8000 -1.0000 0.8000
v 0.8000 -1.0000 -0.8000
v -0.8000 1.0000 0.8000
v -0.8000 1.0000 -0.8000
v -0.8000 -1.0000 0.8000
v -0.8000 -1.0000 -0.8000
v -0.8000 0.8000 0.9000
v -0.8000 -0.8000 0.9000
v 0.8000 -0.8000 0.9000
v 0.8000 0.8000 0.9000
v -0.8000 -0.8000 -0.9000
v -0.8000 0.8000 -0.9000
v 0.8000 0.8000 -0.9000
v 0.8000 -0.8000 -0.9000
v 0.9000 -0.8000 0.8000
v 0.9000 -0.8000 -0.8000
v 0.9000 0.8000 -0.8000
v 0.9000 0.8000 0.8000
v -0.9000 -0.8000 -0.8000
v -0.9000 -0.8000 0.8000
v -0.9000 0.8000 0.8000
v -0.9000 0.8000 -0.8000
v -0.8000 0.9000 -0.8000
v -0.8000 0.9000 0.8000
v 0.8000 0.9000 0.8000
v 0.8000 0.9000 -0.8000
v -0.8000 -0.9000 0.8000
v -0.8000 -0.9000 -0.8000
v 0.8000 -0.9000 -0.8000
v 0.8000 -0.9000 0.8000

vn 0.0 0.0 1.0
vn 0.0 0.0 -1.0
vn -1.0 0.0 0.0
vn 1.0 0.0 0.0
vn 0.0 1.0 0.0
vn 0.0 -1.0 0.0

o frame
usemtl frame
f 1//1 2//1 3//1 4//1
f 5//2 6//2 7//2 8//2
f 5//3 2//3 1//3 6//3
f 3//4 8//4 7//4 4//4
f 6//5 1//5 4//5 7//5
f 2//6 5//6 8//6 3//6
f 9//1 10//1 11//1 12//1
f 13//2 14//2 15//2 16//2
f 13//3 10//3 9//3 14//3
f 11//4 16//4 15//4 12//4
f 14//5 9//5 12//5 15//5
f 10//6 13//6 16//6 11//6
f 17//1 18//1 19//1 20//1
f 21//2 22//2 23//2 24//2
f 21//3 18//3 17//3 22//3
f 19//4 24//4 23//4 20//4
f 22//5 17//5 20//5 23//5
f 18//6 21//6 24//6 19//6
f 25//1 26//1 27//1 28//1
f 29//2 30//2 31//2 32//2
f 29//3 26//3 25//3 30//3
f 27//4 32//4 31//4 28//4
f 30//5 25//5 28//5 31//5
f 26//6 29//6 32//6 27//6
f 33//1 34//1 20//1 3//1
f 35//2 36//2 8//2 23//2
f 35//3 34//3 33//3 36//3
f 20//4 23//4 8//4 3//4
f 36//5 33//5 3//5 8//5
f 34//6 35//6 23//6 20//6
f 37//1 38//1 28//1 11//1
f 39//2 40//2 16//2 31//2
f 39//3 38//3 37//3 40//3
f 28//4 31//4 16//4 11//4
f 40//5 37//5 11//5 16//5
f 38//6 39//6 31//6 28//6
f 2//1 17//1 41//1 42//1
f 22//2 5//2 43//2 44//2
f 22//3 17//3 2//3 5//3
f 41//4 44//4 43//4 42//4
f 5//5 2//5 42//5 43//5
f 17//6 22//6 44//6 41//6
f 10//1 25//1 45//1 46//1
f 30//2 13//2 47//2 48//2
f 30//3 25//3 10//3 13//3
f 45//4 48//4 47//4 46//4
f 13//5 10//5 46//5 47//5
f 25//6 30//6 48//6 45//6
f 49//1 36//1 8//1 7//1
f 37//2 50//2 12//2 11//2
f 37//3 36//3 49//3 50//3
f 8//4 11//4 12//4 7//4
f 50//5 49//5 7//5 12//5
f 36//6 37//6 11//6 8//6
f 35//1 51//1 24//1 23//1
f 52//2 38//2 28//2 27//2
f 52//3 51//3 35//3 38//3
f 24//4 27//4 28//4 23//4
f 38//5 35//5 23//5 28//5
f 51//6 52//6 27//6 24//6
f 6//1 5//1 43//1 53//1
f 10//2 9//2 54//2 46//2
f 10//3 5//3 6//3 9//3
f 43//4 46//4 54//4 53//4
f 9//5 6//5 53//5 54//5
f 5//6 10//6 46//6 43//6
f 22//1 21//1 55//1 44//1
f 26//2 25//2 45//2 56//2
f 26//3 21//3 22//3 25//3
f 55//4 56//4 45//4 44//4
f 25//5 22//5 44//5 45//5
f 21//6 26//6 56//6 55//6

o pane_front
usemtl glass_front
f 57//1 58//1 59//1 60//1
f 58//2 57//2 60//2 59//2

o pane_back
usemtl glass_back
f 61//2 62//2 63//2 64//2
f 62//1 61//1 64//1 63//1

o pane_right
usemtl glass_right
f 65//4 66//4 67//4 68//4
f 66//3 65//3 68//3 67//3

o pane_left
usemtl glass_left
f 69//3 70//3 71//3 72//3
f 70//4 69//4 72//4 71//4

o pane_top
usemtl glass_top
f 73//5 74//5 75//5 76//5
f 74//6 73//6 76//6 75//6

o pane_bottom
usemtl glass_bottom
f 77//6 78//6 79//6 80//6
f 78//5 77//5 80//5 79//5
