# Utah Teapot Model
# Version: Custom
# Triangle Mesh Resolution: 2 (310 faces)
o Utah Teapot

v -2.625 2.19375 0
v -2.51875 2.095313 -0.225
v -2.4125 1.996875 0
v -3 1.8 0
v -2.85 1.8 -0.225
v -2.7 1.8 0
v -1.599637 2.245018 0
v -1.556625 2.137212 -0.225
v -1.74625 2.019938 0
v -1.553652 2.278551 0
v -1.512096 2.121373 -0.2679589
v -1.696872 1.954093 0
v -2.51875 2.095313 0.225
v -2.85 1.8 0.225
v -1.556625 2.137212 0.225
v -1.512096 2.121373 0.2679589
v -2.73125 1.157812 0
v -2.634375 1.253906 -0.225
v -2.5375 1.35 0
v -2.058522 0.9489952 0
v -2.025024 0.8814083 -0.08109342
v -1.79666 0.6370955 -0.225
v -1.82009 0.5463761 0
v -1.980951 0.9880049 0
v -1.962415 0.9 -0.09073791
v -1.766084 0.6326259 -0.2517548
v -1.777138 0.4571819 0
v -2.634375 1.253906 0.225
v -2.025024 0.8814083 0.08109342
v -1.79666 0.6370955 0.225
v -1.962415 0.9 0.09073791
v -1.766084 0.6326259 0.2517548
v 2.8 2.4 0
v 3 2.4 -0.1125
v 3.2 2.4 0
v 2.825 2.45625 0
v 3.126563 2.466797 -0.15
v 3.428125 2.477344 0
v 2.7 2.4 0
v 3 2.4 -0.1875
v 3.3 2.4 0
v 3 2.4 0.1125
v 3.126563 2.466797 0.15
v 3 2.4 0.1875
v 2.3875 1.8 0
v 2.5375 1.621875 -0.34125
v 2.6875 1.44375 0
v 1.918288 1.544066 0
v 1.790237 1.078157 -0.4784341
v 1.985307 0.9262295 -0.09836265
v 2.006467 0.861855 0
v 1.854854 1.570573 8.107826e-8
v 1.73594 1.094895 -0.535653
v 1.944504 0.9 -0.1339794
v 1.939838 0.8191784 0
v 2.5375 1.621875 0.34125
v 1.790237 1.078157 0.4784341
v 1.985307 0.9262295 0.09836265
v 1.73594 1.094895 0.535653
v 1.944504 0.9 0.1339794
v 0 3.15 0
v -0.325 2.98125 0
v -0.2298097 2.98125 -0.2298097
v 1.42062e-8 2.98125 -0.325
v -0.2 2.7 0
v -0.1414214 2.7 -0.1414214
v 8.742278e-9 2.7 -0.2
v 0.2298097 2.98125 -0.2298097
v 0.325 2.98125 1.42062e-8
v 0.1414214 2.7 -0.1414214
v 0.2 2.7 8.742278e-9
v 0 2.98125 0.325
v 0.2298097 2.98125 0.2298097
v 0 2.7 0.2
v 0.1414214 2.7 0.1414214
v -0.2298097 2.98125 0.2298097
v -0.1414214 2.7 0.1414214
v -0.825 2.55 0
v -0.5833631 2.55 -0.5833631
v 3.606189e-8 2.55 -0.825
v -1.3 2.4 0
v -0.9192387 2.4 -0.9192387
v 5.68248e-8 2.4 -1.3
v 0.5833631 2.55 -0.5833631
v 0.825 2.55 3.606189e-8
v 0.9192387 2.4 -0.9192387
v 1.3 2.4 5.68248e-8
v 0 2.55 0.825
v 0.5833631 2.55 0.5833631
v 0 2.4 1.3
v 0.9192387 2.4 0.9192387
v -0.5833631 2.55 0.5833631
v -0.9192387 2.4 0.9192387
v -1.4 2.4 0
v -0.9899495 2.4 -0.9899495
v 6.119594e-8 2.4 -1.4
v -1.403125 2.498438 0
v -0.9921592 2.498438 -0.9921592
v 6.133254e-8 2.498438 -1.403125
v -1.5 2.4 0
v -1.06066 2.4 -1.06066
v 6.556708e-8 2.4 -1.5
v 0.9899495 2.4 -0.9899495
v 1.4 2.4 6.119594e-8
v 0.9921592 2.498438 -0.9921592
v 1.403125 2.498438 6.133254e-8
v 1.06066 2.4 -1.06066
v 1.5 2.4 6.556708e-8
v 0 2.4 1.4
v 0.9899495 2.4 0.9899495
v 0 2.498438 1.403125
v 0.9921592 2.498438 0.9921592
v 0 2.4 1.5
v 1.06066 2.4 1.06066
v -0.9899495 2.4 0.9899495
v -0.9921592 2.498438 0.9921592
v -1.06066 2.4 1.06066
v -1.84375 1.621875 0
v -1.303728 1.621875 -1.303728
v 8.059287e-8 1.621875 -1.84375
v -1.414214 0.9 -1.414214
v 8.742278e-8 0.9 -2
v 1.303728 1.621875 -1.303728
v 1.84375 1.621875 8.059287e-8
v 1.414214 0.9 -1.414214
v 0 1.621875 1.84375
v 1.303728 1.621875 1.303728
v 0 0.9 2
v 1.414214 0.9 1.414214
v -1.303728 1.621875 1.303728
v -1.414214 0.9 1.414214
v -1.75 0.384375 0
v -1.237437 0.384375 -1.237437
v 7.649493e-8 0.384375 -1.75
v -1.5 0.15 0
v -1.06066 0.15 -1.06066
v 6.556708e-8 0.15 -1.5
v 1.237437 0.384375 -1.237437
v 1.75 0.384375 7.649493e-8
v 1.06066 0.15 -1.06066
v 1.5 0.15 6.556708e-8
v 0 0.384375 1.75
v 1.237437 0.384375 1.237437
v 0 0.15 1.5
v 1.06066 0.15 1.06066
v -1.237437 0.384375 1.237437
v -1.06066 0.15 1.06066
v -1.284375 0.046875 0
v -0.9081903 0.046875 -0.9081903
v 5.614181e-8 0.046875 -1.284375
v 0 0 0
v 0.9081903 0.046875 -0.9081903
v 1.284375 0.046875 5.614181e-8
v 0 0.046875 1.284375
v 0.9081903 0.046875 0.9081903
v -0.9081903 0.046875 0.9081903

vn -0.2873479 0.9578263 0
vn 0 0 -1
vn 0.1961161 -0.9805806 0
vn -1 0 0
vn 0 0 -1
vn 1 0 0
vn -0.02553638 0.9996739 0
vn 0 0 -1
vn 0.04011149 -0.9991952 0
vn -0.9454639 0.3257269 0
vn -0.9331491 0.3264221 -0.1506031
vn -0.9548215 0.2971799 0
vn 0 0 1
vn 0 0 1
vn 0 0 1
vn -0.9331491 0.3264221 0.1506031
vn -0.8290722 -0.5591416 0
vn 0 0 -1
vn 0.8944272 0.4472137 0
vn 0.5644904 0.8254397 0
vn 0.4917827 0.7191212 -0.4909323
vn 0 0 -1
vn -0.5589174 -0.8292233 0
vn -0.9994633 0.03275853 0
vn -0.9989328 -0.00000106339 -0.04618782
vn -0.9271769 -0.3518561 -0.1286089
vn -0.8427135 -0.5383622 0
vn 0 0 1
vn 0.4917827 0.7191212 0.4909323
vn 0 0 1
vn -0.9989328 -0.00000106339 0.04618782
vn -0.9271769 -0.3518561 0.1286089
vn 0.7071059 -0.7071076 0
vn 0 0 1
vn -0.5144954 0.8574931 0
vn 0 1 0
vn -0.04643553 0.9957836 -0.07911264
vn 0.1414206 0.9899496 0
vn -0.7071068 0.7071068 0
vn 0 0 -1
vn 0.4856427 -0.8741574 0
vn 0 0 -1
vn -0.04643553 0.9957836 0.07911264
vn 0 0 1
vn -0.9529258 0.3032037 0
vn 0.2156225 0.1361827 -0.9669339
vn 0.9756098 -0.2195122 0
vn -0.3621469 0.932121 0
vn 0.02330657 0.01471994 -0.99962
vn 0.5350207 -0.8068704 -0.2504254
vn 0.5160201 -0.8565764 0
vn 0.9684458 0.2492242 4.233263e-8
vn 0.9519973 0.0742316 -0.2969695
vn 0.9976348 9.382597e-7 -0.06873727
vn 0.9949943 -0.09993211 0
vn 0.2156225 0.1361827 0.9669339
vn 0.02330657 0.01471994 0.99962
vn 0.5350207 -0.8068704 0.2504254
vn 0.9519973 0.0742316 0.2969695
vn 0.9976348 9.382597e-7 0.06873727
vn 0 1 0
vn -0.8574929 -0.5144958 0
vn -0.606339 -0.5144958 -0.606339
vn 3.74822e-8 -0.5144958 -0.8574929
vn -0.7071069 0.7071068 0
vn -0.5000001 0.7071066 -0.5000001
vn 3.090863e-8 0.7071068 -0.7071069
vn 0.606339 -0.5144958 -0.606339
vn 0.8574929 -0.5144958 3.74822e-8
vn 0.5000001 0.7071066 -0.5000001
vn 0.7071069 0.7071068 3.090863e-8
vn 0 -0.5144958 0.8574929
vn 0.606339 -0.5144958 0.606339
vn 0 0.7071068 0.7071069
vn 0.5000001 0.7071066 0.5000001
vn -0.606339 -0.5144958 0.606339
vn -0.5000001 0.7071066 0.5000001
vn -0.1961161 0.9805807 0
vn -0.138675 0.9805807 -0.138675
vn 8.572505e-9 0.9805807 -0.1961161
vn -1 0 0
vn -0.7071068 0 -0.7071068
vn 4.371139e-8 0 -1
vn 0.138675 0.9805807 -0.138675
vn 0.1961161 0.9805807 8.572505e-9
vn 0.7071068 0 -0.7071068
vn 1 0 4.371139e-8
vn 0 0.9805807 0.1961161
vn 0.138675 0.9805807 0.138675
vn 0 0 1
vn 0.7071068 0 0.7071068
vn -0.138675 0.9805807 0.138675
vn -0.7071068 0 0.7071068
vn 0.9417419 -0.3363365 0
vn 0.6659121 -0.3363364 0.6659121
vn -4.116484e-8 -0.3363365 0.9417419
vn 0 1 0
vn 0 1 0
vn 0 1 0
vn -0.9417419 0.3363365 0
vn -0.6659122 0.336336 -0.6659122
vn 4.116484e-8 0.3363365 -0.9417419
vn -0.6659121 -0.3363364 0.6659121
vn -0.9417419 -0.3363365 -4.116484e-8
vn 0 1 0
vn 0 1 0
vn 0.6659122 0.336336 -0.6659122
vn 0.9417419 0.3363365 4.116484e-8
vn 0 -0.3363365 -0.9417419
vn -0.6659121 -0.3363364 -0.6659121
vn 0 1 0
vn 0 1 0
vn 0 0.3363365 0.9417419
vn 0.6659122 0.336336 0.6659122
vn 0.6659121 -0.3363364 -0.6659121
vn 0 1 0
vn -0.6659122 0.336336 0.6659122
vn -0.9635179 0.2676438 0
vn -0.6813101 0.2676438 -0.6813101
vn 4.21167e-8 0.2676438 -0.9635179
vn -0.7071068 0 -0.7071068
vn 4.371138e-8 0 -1
vn 0.6813101 0.2676438 -0.6813101
vn 0.9635179 0.2676438 4.21167e-8
vn 0.7071068 0 -0.7071068
vn 0 0.2676438 0.9635179
vn 0.6813101 0.2676438 0.6813101
vn 0 0 1
vn 0.7071068 0 0.7071068
vn -0.6813101 0.2676438 0.6813101
vn -0.7071068 0 0.7071068
vn -0.792624 -0.6097108 0
vn -0.5604698 -0.6097108 -0.5604698
vn 3.46467e-8 -0.6097108 -0.792624
vn -1 0 0
vn -0.7071068 0 -0.7071068
vn 4.371138e-8 0 -1
vn 0.5604698 -0.6097108 -0.5604698
vn 0.792624 -0.6097108 3.46467e-8
vn 0.7071068 0 -0.7071068
vn 1 0 4.371138e-8
vn 0 -0.6097108 0.792624
vn 0.5604698 -0.6097108 0.5604698
vn 0 0 1
vn 0.7071068 0 0.7071068
vn -0.5604698 -0.6097108 0.5604698
vn -0.7071068 0 0.7071068
vn -0.1871121 -0.9823386 0
vn -0.1323082 -0.9823386 -0.1323082
vn 8.17893e-9 -0.9823386 -0.1871121
vn 0 -1 0
vn 0.1323082 -0.9823386 -0.1323082
vn 0.1871121 -0.9823386 8.17893e-9
vn 0 -0.9823386 0.1871121
vn 0.1323082 -0.9823386 0.1323082
vn -0.1323082 -0.9823386 0.1323082
vn 0 1 0
vn 0 1 0
vn 0 1 0
vn 0 1 0
vn 0 1 0
vn 0 1 0
vn 0 1 0
vn 0 1 0
vn 0 1 0
vn 0 1 0
vn 0 1 0
vn 0 1 0
vn 0 1 0
vn 0 1 0
vn 0 1 0
vn 0 1 0
vn 0 1 0
vn 0 1 0
vn 0 1 0
vn 0 1 0
vn 0 1 0
vn 0 1 0
vn 0 1 0
vn 0 1 0

vt 0.125 0.8571429
vt 0.1835938 0.8535714
vt 0.2421875 0.8482143
vt 0.125 0.75
vt 0.1835938 0.75
vt 0.2421875 0.75
vt 0.125 0.9873477
vt 0.1835938 0.9947629
vt 0.2421875 0.9690534
vt 0.125 0.9936889
vt 0.1835938 1.001104
vt 0.2421875 0.9753947
vt 0.06640625 0.8535714
vt 0.0078125 0.8482143
vt 0.06640625 0.75
vt 0.0078125 0.75
vt 0.06640625 0.9947629
vt 0.0078125 0.9690534
vt 0.06640625 1.001104
vt 0.0078125 0.9753947
vt 0.125 0.6450101
vt 0.1835938 0.6471369
vt 0.2421875 0.6500361
vt 0.2421875 0.5319303
vt 0.2210694 0.5430127
vt 0.1835938 0.5413481
vt 0.125 0.5331957
vt 0.2421875 0.5243896
vt 0.2210694 0.535472
vt 0.1835938 0.5338074
vt 0.125 0.525655
vt 0.06640625 0.6471369
vt 0.0078125 0.6500361
vt 0.0078125 0.5319303
vt 0.02893057 0.5430127
vt 0.06640625 0.5413481
vt 0.0078125 0.5243896
vt 0.02893057 0.535472
vt 0.06640625 0.5338074
vt 0.75 1
vt 0.8125 1
vt 0.875 1
vt 0.75 0.9625
vt 0.8125 0.9614999
vt 0.875 0.9609703
vt 0.75 0.925
vt 0.8125 0.925
vt 0.875 0.925
vt 1 1
vt 0.9375 1
vt 1 0.9625
vt 0.9375 0.9614999
vt 1 0.925
vt 0.9375 0.925
vt 0.75 0.7405194
vt 0.8125 0.7362506
vt 0.875 0.7338991
vt 0.75 0.5854316
vt 0.8125 0.5373052
vt 0.8621504 0.5778163
vt 0.875 0.5817493
vt 0.75 0.5717967
vt 0.8125 0.5236703
vt 0.8621504 0.5641814
vt 0.875 0.5681144
vt 1 0.7405194
vt 0.9375 0.7362506
vt 1 0.5854316
vt 0.9375 0.5373052
vt 0.8878496 0.5778163
vt 1 0.5717967
vt 0.9375 0.5236703
vt 0.8878496 0.5641814
vt 0.375 0.75
vt 0.375 0.6098246
vt 0.4245595 0.6508811
vt 0.4450877 0.75
vt 0.375 0.515625
vt 0.4578641 0.5842718
vt 0.4921875 0.75
vt 0.4245595 0.849119
vt 0.375 0.8901754
vt 0.457864 0.9157282
vt 0.375 0.984375
vt 0.3049123 0.75
vt 0.3254405 0.849119
vt 0.2578125 0.75
vt 0.292136 0.9157282
vt 0.3254405 0.6508811
vt 0.2921359 0.5842718
vt 0.625 0.7139423
vt 0.6377483 0.7245034
vt 0.6430289 0.75
vt 0.625 0.6103284
vt 0.6743814 0.6512372
vt 0.6948358 0.75
vt 0.625 0.515625
vt 0.707864 0.5842718
vt 0.7421875 0.75
vt 0.6377483 0.7754967
vt 0.625 0.7860577
vt 0.6743814 0.8487628
vt 0.625 0.8896716
vt 0.707864 0.9157282
vt 0.625 0.984375
vt 0.6069711 0.75
vt 0.6122517 0.7754967
vt 0.5551642 0.75
vt 0.5756186 0.8487628
vt 0.5078125 0.75
vt 0.542136 0.9157282
vt 0.6122517 0.7245034
vt 0.5756186 0.6512372
vt 0.542136 0.5842718
vt 0 0.5
vt 0.125 0.5
vt 0.25 0.5
vt 0 0.479
vt 0.125 0.479
vt 0.25 0.479
vt 0 0.458
vt 0.125 0.458
vt 0.25 0.458
vt 0.375 0.5
vt 0.5 0.5
vt 0.375 0.479
vt 0.5 0.479
vt 0.375 0.458
vt 0.5 0.458
vt 0.75 0.5
vt 0.625 0.5
vt 0.75 0.479
vt 0.625 0.479
vt 0.75 0.458
vt 0.625 0.458
vt 1 0.5
vt 0.875 0.5
vt 1 0.479
vt 0.875 0.479
vt 1 0.458
vt 0.875 0.458
vt 0 0.3586324
vt 0.125 0.3586324
vt 0.25 0.3586324
vt 0.125 0.269
vt 0.25 0.269
vt 0 0.4424908
vt 0.0256916 0.422419
vt 0 0.4010571
vt 0 0.2799272
vt 0.008020174 0.269
vt 0.375 0.3586324
vt 0.5 0.3586324
vt 0.375 0.269
vt 0.5 0.3522625
vt 0.4526545 0.2931993
vt 0.4881578 0.269
vt 0.75 0.3586324
vt 0.625 0.3586324
vt 0.75 0.269
vt 0.625 0.269
vt 0.5473455 0.2931993
vt 0.5118423 0.269
vt 1 0.3586324
vt 0.875 0.3586324
vt 0.875 0.269
vt 1 0.4424908
vt 0.9743084 0.422419
vt 1 0.4010571
vt 1 0.2799272
vt 0.9919798 0.269
vt 0 0.1921104
vt 0.125 0.1921104
vt 0.25 0.1921104
vt 0 0.15
vt 0.125 0.15
vt 0.25 0.15
vt 0.02487945 0.2291294
vt 0 0.2029673
vt 0.375 0.1921104
vt 0.5 0.1921104
vt 0.375 0.15
vt 0.5 0.15
vt 0.5 0.2569479
vt 0.75 0.1921104
vt 0.625 0.1921104
vt 0.75 0.15
vt 0.625 0.15
vt 1 0.1921104
vt 0.875 0.1921104
vt 1 0.15
vt 0.875 0.15
vt 0.9751205 0.2291294
vt 1 0.2029673
vt 0 0.1201704
vt 0.125 0.1201704
vt 0.25 0.1201704
vt 0.0625 0
vt 0.1875 0
vt 0.375 0.1201704
vt 0.5 0.1201704
vt 0.3125 0
vt 0.4375 0
vt 0.75 0.1201704
vt 0.625 0.1201704
vt 0.6875 0
vt 0.5625 0
vt 1 0.1201704
vt 0.875 0.1201704
vt 0.9375 0
vt 0.8125 0
vt 0.625 0.5178571
vt 0.625 0.5
vt 0.7070749 0.5858502
vt 0.7133883 0.5732233
vt 0.7410714 0.75
vt 0.75 0.75
vt 0.7410714 0.75
vt 0.75 0.75
vt 0.7070749 0.9141498
vt 0.7133883 0.9267767
vt 0.625 0.9821429
vt 0.625 1
vt 0.5089286 0.75
vt 0.5 0.75
vt 0.5429251 0.9141498
vt 0.5366117 0.9267767
vt 0.625 0.9821429
vt 0.625 1
vt 0.625 0.5178571
vt 0.625 0.5
vt 0.5429251 0.5858502
vt 0.5366117 0.5732233
vt 0.5089286 0.75
vt 0.5 0.75

f 2/2/2 5/5/5 4/4/4 1/1/1
f 3/3/3 6/6/6 5/5/5 2/2/2
f 7/7/7 8/8/8 2/2/2
f 7/7/7 2/2/2 1/1/1
f 9/9/9 2/2/2 8/8/8
f 9/9/9 3/3/3 2/2/2
f 7/7/7 10/10/10 11/11/11 8/8/8
f 8/8/8 11/11/11 12/12/12 9/9/9
f 4/4/4 14/15/14 13/13/13 1/1/1
f 14/15/14 6/16/6 3/14/3 13/13/13
f 13/13/13 15/17/15 7/7/7
f 1/1/1 13/13/13 7/7/7
f 15/17/15 13/13/13 9/18/9
f 13/13/13 3/14/3 9/18/9
f 16/19/16 10/10/10 7/7/7 15/17/15
f 12/20/12 16/19/16 15/17/15 9/18/9
f 5/5/5 18/22/18 17/21/17 4/4/4
f 6/6/6 19/23/19 18/22/18 5/5/5
f 20/24/20 21/25/21 18/22/18
f 20/24/20 18/22/18 19/23/19
f 21/25/21 22/26/22 18/22/18
f 22/26/22 23/27/23 17/21/17
f 22/26/22 17/21/17 18/22/18
f 20/24/20 24/28/24 25/29/25 21/25/21
f 21/25/21 25/29/25 26/30/26 22/26/22
f 22/26/22 26/30/26 27/31/27 23/27/23
f 17/21/17 28/32/28 14/15/14 4/4/4
f 28/32/28 19/33/19 6/16/6 14/15/14
f 28/32/28 29/35/29 20/34/20
f 19/33/19 28/32/28 20/34/20
f 28/32/28 30/36/30 29/35/29
f 17/21/17 23/27/23 30/36/30
f 28/32/28 17/21/17 30/36/30
f 31/38/31 24/37/24 20/34/20 29/35/29
f 32/39/32 31/38/31 29/35/29 30/36/30
f 27/31/27 32/39/32 30/36/30 23/27/23
f 34/41/34 37/44/37 36/43/36 33/40/33
f 35/42/35 38/45/38 37/44/37 34/41/34
f 37/44/37 40/47/40 39/46/39 36/43/36
f 38/45/38 41/48/41 40/47/40 37/44/37
f 36/51/36 43/52/43 42/50/42 33/49/33
f 43/52/43 38/45/38 35/42/35 42/50/42
f 39/53/39 44/54/44 43/52/43 36/51/36
f 44/54/44 41/48/41 38/45/38 43/52/43
f 40/47/40 46/56/46 45/55/45 39/46/39
f 41/48/41 47/57/47 46/56/46 40/47/40
f 48/58/48 46/56/46 49/59/49
f 48/58/48 45/55/45 46/56/46
f 50/60/50 49/59/49 46/56/46
f 50/60/50 46/56/46 47/57/47
f 50/60/50 47/57/47 51/61/51
f 49/59/49 53/63/53 52/62/52 48/58/48
f 50/60/50 54/64/54 53/63/53 49/59/49
f 51/61/51 55/65/55 54/64/54 50/60/50
f 45/66/45 56/67/56 44/54/44 39/53/39
f 56/67/56 47/57/47 41/48/41 44/54/44
f 57/69/57 56/67/56 48/68/48
f 56/67/56 45/66/45 48/68/48
f 56/67/56 57/69/57 58/70/58
f 47/57/47 56/67/56 58/70/58
f 51/61/51 47/57/47 58/70/58
f 52/71/52 59/72/59 57/69/57 48/68/48
f 59/72/59 60/73/60 58/70/58 57/69/57
f 60/73/60 55/65/55 51/61/51 58/70/58
f 61/74/61 63/76/63 62/75/62
f 61/74/61 64/77/64 63/76/63
f 63/76/63 66/79/66 65/78/65 62/75/62
f 64/77/64 67/80/67 66/79/66 63/76/63
f 61/74/61 68/81/68 64/77/64
f 61/74/61 69/82/69 68/81/68
f 68/81/68 70/83/70 67/80/67 64/77/64
f 69/82/69 71/84/71 70/83/70 68/81/68
f 72/85/72 73/86/73 61/74/61
f 73/86/73 69/82/69 61/74/61
f 74/87/74 75/88/75 73/86/73 72/85/72
f 75/88/75 71/84/71 69/82/69 73/86/73
f 62/75/62 76/89/76 61/74/61
f 76/89/76 72/85/72 61/74/61
f 65/78/65 77/90/77 76/89/76 62/75/62
f 77/90/77 74/87/74 72/85/72 76/89/76
f 66/92/66 79/95/79 78/94/78 65/91/65
f 67/93/67 80/96/80 79/95/79 66/92/66
f 79/95/79 82/98/82 81/97/81 78/94/78
f 80/96/80 83/99/83 82/98/82 79/95/79
f 70/100/70 84/102/84 80/96/80 67/93/67
f 71/101/71 85/103/85 84/102/84 70/100/70
f 84/102/84 86/104/86 83/99/83 80/96/80
f 85/103/85 87/105/87 86/104/86 84/102/84
f 88/108/88 89/109/89 75/107/75 74/106/74
f 89/109/89 85/103/85 71/101/71 75/107/75
f 90/110/90 91/111/91 89/109/89 88/108/88
f 91/111/91 87/105/87 85/103/85 89/109/89
f 78/94/78 92/113/92 77/112/77 65/91/65
f 92/113/92 88/108/88 74/106/74 77/112/77
f 81/97/81 93/114/93 92/113/92 78/94/78
f 93/114/93 90/110/90 88/108/88 92/113/92
f 95/116/95 98/119/98 97/118/97 94/115/94
f 96/117/96 99/120/99 98/119/98 95/116/95
f 98/119/98 101/122/101 100/121/100 97/118/97
f 99/120/99 102/123/102 101/122/101 98/119/98
f 103/124/103 105/126/105 99/120/99 96/117/96
f 104/125/104 106/127/106 105/126/105 103/124/103
f 105/126/105 107/128/107 102/123/102 99/120/99
f 106/127/106 108/129/108 107/128/107 105/126/105
f 111/132/111 112/133/112 110/131/110 109/130/109
f 112/133/112 106/127/106 104/125/104 110/131/110
f 113/134/113 114/135/114 112/133/112 111/132/111
f 114/135/114 108/129/108 106/127/106 112/133/112
f 97/138/97 116/139/116 115/137/115 94/136/94
f 116/139/116 111/132/111 109/130/109 115/137/115
f 100/140/100 117/141/117 116/139/116 97/138/97
f 117/141/117 113/134/113 111/132/111 116/139/116
f 102/123/102 120/144/120 119/143/119 101/122/101
f 120/144/120 122/146/122 121/145/121 119/143/119
f 11/148/11 10/147/10 100/121/100
f 11/148/11 100/121/100 101/122/101
f 11/148/11 101/122/101 119/143/119
f 11/148/11 118/142/118 12/149/12
f 11/148/11 119/143/119 118/142/118
f 25/151/25 24/150/24 118/142/118
f 25/151/25 118/142/118 119/143/119
f 25/151/25 119/143/119 121/145/121
f 107/128/107 123/152/123 120/144/120 102/123/102
f 108/129/108 124/153/124 123/152/123 107/128/107
f 123/152/123 125/154/125 122/146/122 120/144/120
f 52/155/52 53/156/53 125/154/125
f 52/155/52 125/154/125 123/152/123
f 52/155/52 123/152/123 124/153/124
f 53/156/53 54/157/54 125/154/125
f 126/158/126 127/159/127 114/135/114 113/134/113
f 127/159/127 124/153/124 108/129/108 114/135/114
f 128/160/128 129/161/129 127/159/127 126/158/126
f 129/161/129 59/162/59 52/155/52
f 127/159/127 129/161/129 52/155/52
f 124/153/124 127/159/127 52/155/52
f 129/161/129 60/163/60 59/162/59
f 130/165/130 126/158/126 113/134/113 117/141/117
f 131/166/131 128/160/128 126/158/126 130/165/130
f 100/140/100 10/167/10 16/168/16
f 117/141/117 100/140/100 16/168/16
f 130/165/130 117/141/117 16/168/16
f 12/169/12 118/164/118 16/168/16
f 118/164/118 130/165/130 16/168/16
f 118/164/118 24/170/24 31/171/31
f 130/165/130 118/164/118 31/171/31
f 131/166/131 130/165/130 31/171/31
f 122/146/122 134/174/134 133/173/133 121/145/121
f 133/173/133 136/176/136 135/175/135 132/172/132
f 134/174/134 137/177/137 136/176/136 133/173/133
f 26/178/26 25/151/25 121/145/121
f 26/178/26 121/145/121 133/173/133
f 27/179/27 26/178/26 133/173/133
f 27/179/27 133/173/133 132/172/132
f 125/154/125 138/180/138 134/174/134 122/146/122
f 138/180/138 140/182/140 137/177/137 134/174/134
f 139/181/139 141/183/141 140/182/140 138/180/138
f 54/157/54 55/184/55 139/181/139
f 54/157/54 139/181/139 138/180/138
f 54/157/54 138/180/138 125/154/125
f 142/185/142 143/186/143 129/161/129 128/160/128
f 144/187/144 145/188/145 143/186/143 142/185/142
f 145/188/145 141/183/141 139/181/139 143/186/143
f 139/181/139 55/184/55 60/163/60
f 143/186/143 139/181/139 60/163/60
f 129/161/129 143/186/143 60/163/60
f 146/190/146 142/185/142 128/160/128 131/166/131
f 135/191/135 147/192/147 146/190/146 132/189/132
f 147/192/147 144/187/144 142/185/142 146/190/146
f 131/166/131 31/171/31 32/193/32
f 146/190/146 131/166/131 32/193/32
f 146/190/146 32/193/32 27/194/27
f 132/189/132 146/190/146 27/194/27
f 136/176/136 149/196/149 148/195/148 135/175/135
f 137/177/137 150/197/150 149/196/149 136/176/136
f 149/196/149 151/198/151 148/195/148
f 150/197/150 151/199/151 149/196/149
f 140/182/140 152/200/152 150/197/150 137/177/137
f 141/183/141 153/201/153 152/200/152 140/182/140
f 152/200/152 151/202/151 150/197/150
f 153/201/153 151/203/151 152/200/152
f 154/204/154 155/205/155 145/188/145 144/187/144
f 155/205/155 153/201/153 141/183/141 145/188/145
f 154/204/154 151/206/151 155/205/155
f 155/205/155 151/207/151 153/201/153
f 148/208/148 156/209/156 147/192/147 135/191/135
f 156/209/156 154/204/154 144/187/144 147/192/147
f 148/208/148 151/210/151 156/209/156
f 156/209/156 151/211/151 154/204/154
f 94/213/158 81/212/157 82/214/159 95/215/160
f 95/215/160 82/214/159 83/216/161 96/217/162
f 96/219/164 83/218/163 86/220/165 103/221/166
f 103/221/166 86/220/165 87/222/167 104/223/168
f 104/227/172 87/226/171 91/224/169 110/225/170
f 110/229/174 91/228/173 90/226/171 109/227/172
f 109/233/178 90/232/177 93/230/175 115/231/176
f 115/235/180 93/234/179 81/232/177 94/233/178
